[Header]			# Header keywords are followed by a single value
FileType htr		# single word string
DataType HTRS		# Hierarchical translations followed by rotations and Scale
FileVersion 1		# integer
NumSegments 20		# integer
NumFrames 5		# integer
DataFrameRate 60	# integer
EulerRotationOrder ZYX	# one word string
CalibrationUnits mm	# one word string
RotationUnits Degrees	# one word string
GlobalAxisofGravity Y	# character, X or Y or Z
BoneLengthAxis Y
ScaleFactor 1.000000
[SegmentNames&Hierarchy]
#CHILD	PARENT
LowerTorso	GLOBAL
UpperTorso	LowerTorso
LCollarBone	UpperTorso
RCollarBone	UpperTorso
LUpArm	LCollarBone
RUpArm	RCollarBone
LLowArm	LUpArm
RLowArm	RUpArm
LHand	LLowArm
RHand	RLowArm
LPelvis	LowerTorso
RPelvis	LowerTorso
LThigh	LPelvis
RThigh	RPelvis
LLowLeg	LThigh
RLowLeg	RThigh
LFoot	LLowLeg
RFoot	RLowLeg
Neck	UpperTorso
Head	Neck
[BasePosition]
#SegmentName Tx, Ty, Tz, Rx, Ry, Rz, BoneLength
LowerTorso	0.000000	0.000000	0.000000	0.000000	0.000000	0.000000	247.497849
UpperTorso	0.000000	247.497849	0.000000	-3.483188	-0.016176	-0.898562	303.935425
LCollarBone	0.000000	303.935425	0.000000	-2.778975	2.380151	-103.909637	160.814774
RCollarBone	0.000000	303.935425	0.000000	1.923138	-2.431442	97.423370	173.085861
LUpArm	0.000000	160.814774	0.000000	9.905276	-0.146364	3.830753	266.228302
RUpArm	0.000000	173.085861	0.000000	3.559436	0.163580	4.186032	250.544907
LLowArm	0.000000	266.228302	0.000000	0.604391	2.460426	18.478745	239.401855
RLowArm	0.000000	250.544907	0.000000	-4.677841	-1.676118	-16.763147	247.676224
LHand	0.000000	239.401855	0.000000	-2.922581	-1.504997	-10.879651	178.693573
RHand	0.000000	247.676224	0.000000	8.087741	0.221451	14.771751	171.097885
LPelvis	0.000000	0.000000	0.000000	25.628080	-1.004481	-103.107483	127.213554
RPelvis	0.000000	0.000000	0.000000	7.212610	1.026056	95.806335	154.731140
LThigh	0.000000	127.213554	0.000000	-8.629928	-24.934669	-78.343170	392.414856
RThigh	0.000000	154.731140	0.000000	-0.087953	7.045837	82.361420	403.151337
LLowLeg	0.000000	392.414856	0.000000	-11.135172	-0.396179	6.207254	411.539612
RLowLeg	0.000000	403.151337	0.000000	-15.879393	-0.038285	-2.567663	396.965240
LFoot	0.000000	411.539612	0.000000	86.993790	-9.419292	-7.421347	182.020935
RFoot	0.000000	396.965240	0.000000	85.685738	19.489246	8.810133	181.714371
Neck	0.000000	303.935425	0.000000	26.917892	0.010495	-0.245093	141.112030
Head	0.000000	141.112030	0.000000	-34.290924	-1.751020	-3.852423	164.098740
#Beginning of Data. Separated by tabs.
[LowerTorso]
#Fr	Tx	Ty	Tz	Rx	Ry	Rz	SF
188	-1498.566162	812.743896	-251.283127	6.013337	-2.213982	-4.396883	1.000000
189	-1496.092407	824.322144	-210.249619	5.918595	-3.003553	-4.145132	1.000000
190	-1493.565063	835.247070	-167.702957	5.796500	-3.944990	-4.177172	1.000000
191	-1491.173340	844.789429	-123.998642	5.671116	-4.986257	-4.523439	1.000000
192	-1489.055054	852.253174	-79.552368	5.557494	-6.036037	-5.182590	1.000000
[UpperTorso]
#Fr	Tx	Ty	Tz	Rx	Ry	Rz	SF
188	0.000000	0.000000	0.000000	21.094378	17.943516	8.244493	1.000000
189	0.000000	0.000000	0.000000	20.563732	19.832010	7.283065	1.000000
190	0.000000	0.000000	0.000000	19.737396	21.587893	6.488834	1.000000
191	0.000000	0.000000	0.000000	18.666277	23.229752	5.934723	1.000000
192	0.000000	0.000000	0.000000	17.439978	24.744553	5.646232	1.000000
[LCollarBone]
#Fr	Tx	Ty	Tz	Rx	Ry	Rz	SF
188	0.000000	0.000000	0.000000	0.210043	0.444169	-8.871406	1.000000
189	0.000000	0.000000	0.000000	-0.675556	0.072894	-8.780637	1.000000
190	0.000000	0.000000	0.000000	-1.481177	-0.266026	-8.510625	1.000000
191	0.000000	0.000000	0.000000	-2.130753	-0.535458	-8.237123	1.000000
192	0.000000	0.000000	0.000000	-2.528891	-0.699712	-8.136519	1.000000
[RCollarBone]
#Fr	Tx	Ty	Tz	Rx	Ry	Rz	SF
188	0.000000	0.000000	0.000000	1.928019	-0.247336	1.683247	1.000000
189	0.000000	0.000000	0.000000	2.436732	-0.327840	0.908023	1.000000
190	0.000000	0.000000	0.000000	3.142598	-0.422100	0.284755	1.000000
191	0.000000	0.000000	0.000000	3.900454	-0.511561	-0.260884	1.000000
192	0.000000	0.000000	0.000000	4.579847	-0.577512	-0.794543	1.000000
[LUpArm]
#Fr	Tx	Ty	Tz	Rx	Ry	Rz	SF
188	0.000000	0.000000	0.000000	-9.679307	-10.154811	14.070580	1.000000
189	0.000000	0.000000	0.000000	-9.296554	-7.358857	9.656986	1.000000
190	0.000000	0.000000	0.000000	-9.528017	-5.609889	5.304364	1.000000
191	0.000000	0.000000	0.000000	-10.383121	-5.005270	1.322352	1.000000
192	0.000000	0.000000	0.000000	-11.957831	-5.417414	-1.958817	1.000000
[RUpArm]
#Fr	Tx	Ty	Tz	Rx	Ry	Rz	SF
188	0.000000	0.000000	0.000000	-11.085385	-2.436409	9.483443	1.000000
189	0.000000	0.000000	0.000000	-9.762801	-2.468385	5.955799	1.000000
190	0.000000	0.000000	0.000000	-8.574397	-2.651696	2.501508	1.000000
191	0.000000	0.000000	0.000000	-7.444300	-3.079464	-0.886990	1.000000
192	0.000000	0.000000	0.000000	-6.208075	-3.663460	-4.201576	1.000000
[LLowArm]
#Fr	Tx	Ty	Tz	Rx	Ry	Rz	SF
188	0.000000	0.000000	0.000000	12.043828	-1.852144	0.061532	1.000000
189	0.000000	0.000000	0.000000	7.349052	-1.129079	0.083908	1.000000
190	0.000000	0.000000	0.000000	3.050034	-0.467216	0.052403	1.000000
191	0.000000	0.000000	0.000000	-0.609024	0.092914	-0.013437	1.000000
192	0.000000	0.000000	0.000000	-3.299966	0.501485	-0.084591	1.000000
[RLowArm]
#Fr	Tx	Ty	Tz	Rx	Ry	Rz	SF
188	0.000000	0.000000	0.000000	12.816258	1.124210	0.109038	1.000000
189	0.000000	0.000000	0.000000	14.905082	1.303892	0.150504	1.000000
190	0.000000	0.000000	0.000000	17.383034	1.514884	0.208146	1.000000
191	0.000000	0.000000	0.000000	20.222076	1.753244	0.285322	1.000000
192	0.000000	0.000000	0.000000	23.335470	2.009822	0.383405	1.000000
[LHand]
#Fr	Tx	Ty	Tz	Rx	Ry	Rz	SF
188	0.000000	0.000000	0.000000	4.502644	-19.841822	11.427325	1.000000
189	0.000000	0.000000	0.000000	5.658081	-19.219299	10.242368	1.000000
190	0.000000	0.000000	0.000000	6.459700	-18.312269	8.862062	1.000000
191	0.000000	0.000000	0.000000	6.723406	-17.352032	7.302493	1.000000
192	0.000000	0.000000	0.000000	6.267701	-16.495693	5.697839	1.000000
[RHand]
#Fr	Tx	Ty	Tz	Rx	Ry	Rz	SF
188	0.000000	0.000000	0.000000	16.604319	19.061636	-7.926567	1.000000
189	0.000000	0.000000	0.000000	13.576395	17.469805	-9.309879	1.000000
190	0.000000	0.000000	0.000000	10.885989	15.878986	-10.472318	1.000000
191	0.000000	0.000000	0.000000	8.398906	14.327389	-11.486511	1.000000
192	0.000000	0.000000	0.000000	6.006887	12.786330	-12.376276	1.000000
[LPelvis]
#Fr	Tx	Ty	Tz	Rx	Ry	Rz	SF
188	0.000000	0.000000	0.000000	0.000000	0.000000	0.000000	1.000000
189	0.000000	0.000000	0.000000	0.000000	0.000000	0.000000	1.000000
190	0.000000	0.000000	0.000000	0.000000	0.000000	0.000000	1.000000
191	0.000000	0.000000	0.000000	0.000000	0.000000	0.000000	1.000000
192	0.000000	0.000000	0.000000	0.000000	0.000000	0.000000	1.000000
[RPelvis]
#Fr	Tx	Ty	Tz	Rx	Ry	Rz	SF
188	0.000000	0.000000	0.000000	0.000000	0.000000	0.000000	1.000000
189	0.000000	0.000000	0.000000	0.000000	0.000000	0.000000	1.000000
190	0.000000	0.000000	0.000000	0.000000	0.000000	0.000000	1.000000
191	0.000000	0.000000	0.000000	0.000000	0.000000	0.000000	1.000000
192	0.000000	0.000000	0.000000	0.000000	0.000000	0.000000	1.000000
[LThigh]
#Fr	Tx	Ty	Tz	Rx	Ry	Rz	SF
188	0.000000	0.000000	0.000000	57.354553	6.280773	-13.735752	1.000000
189	0.000000	0.000000	0.000000	56.347977	4.886195	-14.310027	1.000000
190	0.000000	0.000000	0.000000	54.655476	3.074634	-14.746788	1.000000
191	0.000000	0.000000	0.000000	52.535076	1.004524	-14.985088	1.000000
192	0.000000	0.000000	0.000000	50.303635	-1.038549	-14.858696	1.000000
[RThigh]
#Fr	Tx	Ty	Tz	Rx	Ry	Rz	SF
188	0.000000	0.000000	0.000000	2.178522	8.183768	-2.194223	1.000000
189	0.000000	0.000000	0.000000	-1.767995	5.991106	-3.044420	1.000000
190	0.000000	0.000000	0.000000	-5.333842	3.665305	-3.597780	1.000000
191	0.000000	0.000000	0.000000	-8.391745	1.492420	-3.906685	1.000000
192	0.000000	0.000000	0.000000	-10.939793	-0.200422	-4.059112	1.000000
[LLowLeg]
#Fr	Tx	Ty	Tz	Rx	Ry	Rz	SF
188	0.000000	0.000000	0.000000	-50.029736	3.968209	-0.717276	1.000000
189	0.000000	0.000000	0.000000	-40.760044	3.306299	-0.324693	1.000000
190	0.000000	0.000000	0.000000	-31.354315	2.578270	-0.040704	1.000000
191	0.000000	0.000000	0.000000	-22.266033	1.839213	0.117007	1.000000
192	0.000000	0.000000	0.000000	-14.193733	1.168729	0.157525	1.000000
[RLowLeg]
#Fr	Tx	Ty	Tz	Rx	Ry	Rz	SF
188	0.000000	0.000000	0.000000	-32.619450	-1.828605	0.040990	1.000000
189	0.000000	0.000000	0.000000	-28.481611	-1.602131	-0.021951	1.000000
190	0.000000	0.000000	0.000000	-24.545124	-1.382959	-0.066508	1.000000
191	0.000000	0.000000	0.000000	-20.929264	-1.179350	-0.094085	1.000000
192	0.000000	0.000000	0.000000	-17.716112	-0.997256	-0.107770	1.000000
[LFoot]
#Fr	Tx	Ty	Tz	Rx	Ry	Rz	SF
188	0.000000	0.000000	0.000000	6.245783	1.439677	6.105107	1.000000
189	0.000000	0.000000	0.000000	6.174877	1.081549	5.133583	1.000000
190	0.000000	0.000000	0.000000	6.199036	0.603107	3.924527	1.000000
191	0.000000	0.000000	0.000000	6.261909	0.160078	2.830126	1.000000
192	0.000000	0.000000	0.000000	6.340696	-0.053191	2.327968	1.000000
[RFoot]
#Fr	Tx	Ty	Tz	Rx	Ry	Rz	SF
188	0.000000	0.000000	0.000000	-2.244202	-0.462023	0.425874	1.000000
189	0.000000	0.000000	0.000000	-9.057948	-1.569750	1.703144	1.000000
190	0.000000	0.000000	0.000000	-17.232651	-2.080156	3.418775	1.000000
191	0.000000	0.000000	0.000000	-26.315300	-1.673876	5.145725	1.000000
192	0.000000	0.000000	0.000000	-35.461334	-0.478277	6.279719	1.000000
[Neck]
#Fr	Tx	Ty	Tz	Rx	Ry	Rz	SF
188	0.000000	0.000000	0.000000	2.010096	-3.065342	-4.317441	1.000000
189	0.000000	0.000000	0.000000	2.202338	-2.830295	-4.369522	1.000000
190	0.000000	0.000000	0.000000	2.538002	-2.552695	-4.418906	1.000000
191	0.000000	0.000000	0.000000	2.960390	-2.272229	-4.467896	1.000000
192	0.000000	0.000000	0.000000	3.404429	-2.003519	-4.516600	1.000000
[Head]
#Fr	Tx	Ty	Tz	Rx	Ry	Rz	SF
188	0.000000	0.000000	0.000000	4.000412	0.479644	-10.505037	1.000000
189	0.000000	0.000000	0.000000	4.301686	0.992762	-10.287717	1.000000
190	0.000000	0.000000	0.000000	4.849279	1.587587	-10.026439	1.000000
191	0.000000	0.000000	0.000000	5.580631	2.205705	-9.755277	1.000000
192	0.000000	0.000000	0.000000	6.397994	2.818196	-9.486195	1.000000
[EndOfFile]
